<?xml version="1.0" encoding="utf-8"?>
<!-- Generator: Adobe Illustrator 24.1.2, SVG Export Plug-In . SVG Version: 6.00 Build 0)  -->
<svg version="1.1" id="Layer_1" xmlns="http://www.w3.org/2000/svg" xmlns:xlink="http://www.w3.org/1999/xlink" x="0px" y="0px"
	 viewBox="0 0 427 106" style="enable-background:new 0 0 427 106;" xml:space="preserve">
<style type="text/css">
	.st0{fill:#FFFFFF;}
	.st1{fill:#9DCE74;}
	.st2{fill:#B9954B;}
	.st3{fill:#AC8B6C;}
	.st4{fill:#010101;}
	.st5{fill:none;}
	.st6{fill:#60A8DC;}
	.st7{fill:#66A3D6;}
	.st8{fill:#65A3D6;}
</style>
<path class="st0" d="M11.2,17.5c0,0,0.2-0.6,0.7-0.3s3,2.5,3,7.6c0.1,5.1,0.6,11.4,1.1,13.1c0.6,1.7,4.2,6.1,9.8,6
	c0,0,3.2-0.5,4.1-1c0.8-0.4,7.9-5.8,16-2.7c0,0,5.2,2.7,7.4,4.8s19.3,16.8,19.3,16.8s13.4,10.8,18,11.8c0,0,1.4-1.8,1.9-2.7
	s3.8-11.1,11.8-12c0,0,3.9,0,5.6,1c1.7,0.9,6.7,3.7,6.7,3.7s3.3,1.5,3.3,5.3c0,3.8,13.4,6.2,13.4,6.2s2.3,1.1,2.2,2.3
	c-0.1,1.2-4.4,6.7-4.4,6.7l-3.8,3l-0.3,1.1c0,0-2.7,0.8-3.6,0.7c-0.9-0.1-10.4-0.6-11.8-1c-1.4-0.4-4.1-0.9-4.1-0.9s-3.2-0.5-4-0.2
	c-0.8,0.3-4.6,0-5.8,1.2s-2.6,1.6-3.6,3.6s-6.1,1.7-6.1,1.7s6.9,2.2,7.3,2.8c0,0,1.7,0.9,1.6,1.6c-0.1,0.8-0.3,1.8-0.3,1.8l-6.4-0.1
	l-8.9-0.3c0,0-2.7-1.5-3.5-4.5l-7.1-1.5c0,0-29.5-10.1-32-20.4l-1.2,1.5l-7.9,9.8c0,0-1.7,3-1.3,6.5c0.4,3.4,1,4.3,1,4.3l2.7,1.1
	l0.9,0.6l1.5,1.5l0.3,0.5l-0.5,0.6l-1.3,0.4l-7.8,0l-1-1.1L24,97.5l-0.4,1.1L23.2,99L16.7,99l-1.2-1.4l-0.3-1.5l0.1-3.3l0.8-3.8
	l-0.6-8.3l0.7-2.1l1.1-0.8l2.2-2.2l1.4-2.9L20,68.7l-1.7-6.8l1-4.9l1.9-4.3c0,0-1.3-2.5-2.1-3c-0.8-0.5-6.2-6.1-6.2-6.1
	s-2.1-2.6-3.3-5.8s-0.4-8.3-0.4-8.3s0.9-6.5,0.8-7.9C10,20.3,10.1,17.8,11.2,17.5z"/>
<path class="st1" d="M415.1,68.6h-295c0,0,0,0.1,0,0.1c-0.3,0.1-0.6,0.5-0.3,0.9c1.6,1.9,3.7,2.9,6.1,3.6c1.8,0.5,3.7,1,5.5,1.4
	c0.7,0.3,1.3,0.7,1.9,1.2c0.2,0.2,0.7,0.8,1.1,1c0.3,0.1,0.6,0.2,1,0.1c0,0.1,0,0.1,0,0.2c-0.2-0.1-0.5,0-0.6,0.2
	c-0.3,0.6-0.3,0.7-0.3,1.3c0,0.4,0.4,0.6,0.7,0.5c0.1,0.9-0.3,1.6-0.8,2.3c-0.2-0.1-0.4-0.1-0.5,0.1c-0.1,0.1-0.2,0.3-0.3,0.4
	c-0.2-0.2-0.6-0.2-0.7,0.1c0,0,0,0.1-0.1,0.1l0,0v0c-0.2,0.4-0.3,0.8-0.4,1.2c-0.4,0.3-0.7,0.7-1,1.1c-0.2-0.1-0.4,0-0.6,0.2
	c0,0,0,0.1-0.1,0.1c-0.1,0.2-0.1,0.3,0,0.5c-1.3,1.3-3.1,1.8-4,3.5c0,0.1-0.1,0.2-0.1,0.3c-2.3,0.4-5,0.1-7.5-0.4
	c-0.3,0.1-0.6,0.2-1.1,0.2c-3.6,0-7-0.7-10.3-1.9c-0.2,0.1-0.5,0.2-0.8,0.2c-2.5-0.1-4.9-0.6-7.3,0.2c-1.7,0.6-2.9,1.7-4.3,3
	c-1,0.9-1.8,1.8-3,2.3c-0.2,0.1-0.4,0.1-0.5,0.2c-0.9,0.6-1.9,0.8-3,0.9c0.9,0.4,1.8,0.8,2.7,1.1c1.1,0.5,2.6,1.3,3.8,1.5
	c1.7,0.3,2,2.2,1.3,3.5h318.5c0.1,0,0.3-0.1,0.3-0.2V68.8C415.4,68.7,415.3,68.6,415.1,68.6z"/>
<path class="st2" d="M118.2,66.4c-1.1,0-1.1,1.6,0,1.6S119.3,66.4,118.2,66.4"/>
<path class="st3" d="M73.9,62.7c-0.9-0.6-1.8-1.3-2.4-2.2c-1.5-1.1-3.1-2.2-4.5-3.4c-2.6-2.2-5.1-4.5-7.6-6.7
	c-0.2-0.2-0.3-0.4-0.4-0.6c-2.5,0.8-4.7,2.5-6.1,4.7c-0.3,0.4-0.4,0.9-0.4,1.4c0,0.1-0.1,0.3-0.1,0.4c-0.3,1.3,0,2.8,1.5,3.7
	c0.9,0.6-0.5,4.9-0.4,6.2c0.3,2.4,1,5.1,2.6,7.1c3.2,4,7.3,3.1,11.5,1.3c3.6-1.5,9.4-3.7,7.7-8.7C74.9,64.7,74.4,63.7,73.9,62.7"/>
<path class="st3" d="M44.1,43.6c-0.2-0.3-0.3-0.5-0.5-0.8c0-0.7-0.3-1.3-1.2-1.7c-4.8-2.4-7.4,2.2-10.3,5.2
	c-1.3,1.3-3.4,2.4-3.4,4.5c0,1.9,1.8,3.3,3.6,3.4c2.3,0.1,3.2-1.4,4.8-2.6c1.6-1.2,3.9,0.3,5.9-0.6c1.5-0.7,2.2-1.9,2.1-3.1
	C45.7,46.4,44.9,44.9,44.1,43.6"/>
<path class="st0" d="M117.4,70c0,0.6-0.4,1.1-0.9,1.1s-0.9-0.5-0.9-1.1s0.4-1.1,0.9-1.1S117.4,69.4,117.4,70"/>
<g>
	<path class="st3" d="M120.4,69.7c-0.3-0.6-0.5-1.3-0.4-2c-0.2-0.6-0.3-1.1-0.6-1.6c-0.1-0.1-0.1-0.2-0.1-0.3
		c-0.9-0.7-1.8-1.4-2.7-2.2c-0.3-0.1-0.5-0.2-0.7-0.4c-0.1,0.1-0.2,0.1-0.3,0.2c-1.1,0.6-2.6,0.6-3.7-0.1c-0.7-0.5-1.1-1.3-1.7-1.9
		c-0.6-0.7-1.4-1.4-2.2-1.9c-0.4-0.2-0.6-0.6-0.6-0.9c-1.4-0.1-2.9,0.1-4.3,0.6c-4.7,1.6-8,5.5-9.8,10c0.7-0.2,1.5,0.2,1.8,0.9
		c0.2-0.3,0.4-0.5,0.4-0.6c0,0,0,0.1,0,0.1c-0.1,0.2-0.2,0.4-0.2,0.6c0,0.1,0,0.1-0.1,0.2c0,0.2,0,0.3,0,0.5
		c-0.3,1.7-0.1,3.6,0.8,5.1c0.2,0.1,0.3,0.2,0.4,0.3c1.1,1.2,1.8,2.7,2.8,3.8c0.2,0.2,0.2,0.3,0.3,0.5c0.1,0.1,0.2,0.2,0.2,0.3
		c0,0,0.1,0.1,0.1,0.1c0.8,0.2,1.6,0.5,2.4,0.7c0.1-0.1,0.2-0.2,0.4-0.2c2.5-0.8,5-1.5,7.5-2.2c0.6-0.3,1.2-0.7,1.6-1
		c3-2.8,0.2-1.7,1.1-3.4c0.8-1.6,0.8-1.5,2.8-2.1c1.9-0.6,3.6-1.6,5.3-2.4C120.7,70.2,120.5,69.9,120.4,69.7z M110.6,76.6
		c-1.6,1.6-4.9,2.3-6.6,0.4c-1.2-1.4-1.3-3.4-2.1-5c-0.5-1-1.4-1.7-2.1-2.6c-0.6-0.7-0.9-1.4-1.6-1.9c-0.7-0.6-0.4-1.4,0.2-1.8
		c0.5-0.6,1.5-0.8,2,0.1c0.2,0.3,0.4,0.6,0.7,0.9c1.5,1.6,4.2,2,6.2,2.6c1.5,0.5,4-0.3,4.3,1.8c0,0.1,0,0.1,0,0.2
		C112.5,72.8,111.7,75.5,110.6,76.6z M118,69.3c0,0.3,0,0.6-0.1,0.9c0,0.2-0.1,0.3-0.2,0.5c-0.1,0.4-0.4,0.7-0.9,0.7
		c-0.5,0-1-0.4-1-1c0-0.1,0-0.2,0-0.3c0,0-0.1,0-0.1,0c-0.1,0-0.1,0-0.1,0c-0.1,1.2-1.9,1.2-1.9,0c0-0.5,0-1,0.2-1.5
		c0-0.1,0.1-0.2,0.1-0.3c0-0.9,0.6-1.8,1.7-1.8c0.6,0,1.1,0.3,1.4,0.7c0.2,0.1,0.4,0.3,0.4,0.6c0,0,0,0.1,0,0.1
		c0,0.1,0.1,0.2,0.1,0.2c0.1,0.1,0.1,0.2,0.1,0.3c0,0,0,0,0,0c0,0.1,0.1,0.2,0.1,0.3c0,0.1,0,0.1,0,0.2c0,0,0,0,0,0.1
		C118,69.2,118,69.2,118,69.3C118,69.3,118,69.3,118,69.3z"/>
	<path class="st0" d="M94.1,73.2l0-0.2l0.1-1.5c0,0,0,0,0,0.1c-0.2,0.4-0.3,0.9-0.4,1.5C93.9,73.1,94,73.2,94.1,73.2z"/>
</g>
<path class="st0" d="M134.4,75.9c0,0.1-0.3,0.2-0.6,0.1c-0.3-0.1-0.5-0.2-0.5-0.3c0-0.1,0.3-0.2,0.6-0.1
	C134.2,75.7,134.4,75.8,134.4,75.9"/>
<path class="st4" d="M31.5,44.9c-1.3,1-2.4,2.1-3.4,3.4s-1.9,2.6-2.5,4.1c0.4-0.7,0.8-1.3,1.3-2c0.5-0.6,1-1.3,1.5-1.8
	c1-1.2,2.2-2.3,3.4-3.2c1.2-1,2.6-1.7,4.1-2.3l1.1-0.4c0.4-0.1,0.8-0.2,1.2-0.2l0.6-0.1l0.6-0.1c0.4,0,0.8-0.1,1.2-0.1
	c-1.6-0.1-3.2,0-4.8,0.5C34.2,43.2,32.8,43.9,31.5,44.9"/>
<path class="st4" d="M88.2,76.5c0.7,0.1,1.5,0.2,2.2,0.3c-1.4-0.4-2.9-0.7-4.3-1.2c-1.4-0.5-2.8-1-4.1-1.6c-1.3-0.6-2.6-1.4-3.8-2.2
	c-0.6-0.4-1.2-0.8-1.7-1.3c-0.6-0.5-1.1-1-1.6-1.5c0.8,1.2,1.9,2.3,3.1,3.2c1.2,0.9,2.5,1.7,3.8,2.3c1.4,0.6,2.8,1.2,4.2,1.5
	C86.8,76.2,87.5,76.4,88.2,76.5"/>
<path class="st4" d="M108.2,75.1c0.4-0.1,0.8-0.1,1.1-0.2c0.4-0.1,0.8-0.3,0.9-0.7c-0.3,0.2-0.7,0.2-1.1,0.3l-1.1,0.1
	c-0.7,0.1-1.5,0.2-2.2,0.4C106.7,75.2,107.4,75.2,108.2,75.1"/>
<path class="st4" d="M40.8,76.3C40.8,76.3,40.8,76.3,40.8,76.3C40.8,76.3,40.8,76.3,40.8,76.3C40.8,76.2,40.8,76.3,40.8,76.3"/>
<polyline class="st4" points="40.6,69 40.6,69 40.6,69 "/>
<path class="st4" d="M38.8,73.3C38.8,73.3,38.8,73.3,38.8,73.3C38.8,73.3,38.8,73.3,38.8,73.3C38.8,73.2,38.8,73.3,38.8,73.3"/>
<path class="st4" d="M97.3,66.7c0.1,0.1,0.1,0.1,0.1,0.2c0.1,0.2,0.2,0.3,0.3,0.5c1.9,2.1,3.1,4.5,3.9,7.3c0.6,1.9,0.3,4.6,2.6,5.5
	c0.1,0.1,0.3,0.1,0.4,0.1c1.8,0.1,4.1-0.7,5.3-1.7c1.3-1,1.6-2.2,1.8-3.6c0.2-0.4,0.3-0.9,0.4-1.4c0.1-0.4,0.1-0.9,0-1.3
	c0-0.2-0.1-0.4-0.1-0.7l-0.2-0.6c-0.6-1.5-1.1-3.1-1.5-4.7c-0.1-0.4-0.2-0.8-0.2-1.2c0-0.4-0.1-0.8-0.1-1.2
	c-0.2-0.8-0.5-1.6-0.8-2.3c0,0,0,0-0.1,0s0,0,0,0.1c0.3,0.8,0.6,1.5,0.7,2.3c0.1,0.4,0.1,0.8,0.1,1.2c0,0.4,0.1,0.8,0.1,1.2
	c0.3,1.6,0.8,3.2,1.4,4.8l0.2,0.6c0.1,0.2,0.1,0.4,0.1,0.5c0,0.4,0,0.8,0,1.2c-0.1,0.8-0.4,1.5-0.9,2.1c-1,1.2-2.6,1.7-4.2,1.8h0
	l0,0c-0.5,0.1-1.1,0-1.4-0.2c-0.2-0.1-0.3-0.3-0.4-0.4c-0.1-0.2-0.1-0.4-0.1-0.7c0-0.2,0-0.6-0.1-0.9c0-0.3-0.1-0.6-0.2-0.9
	c-0.2-0.6-0.5-1.1-0.8-1.6c-0.3-0.5-0.6-1-1-1.5c-0.2-0.2-0.4-0.5-0.6-0.7c-0.2-0.2-0.4-0.4-0.7-0.6c-0.5-0.4-1-0.8-1.5-1.3
	c-0.5-0.7-1-1.3-1.6-1.9c0,0-0.1-0.1-0.1-0.1c-0.1,0-0.2-0.1-0.3-0.2l2.1-1.7c0.9-0.7,1.8-1.4,2.7-2c0.9-0.6,1.9-1.2,2.9-1.6
	c1-0.4,2.1-0.7,3.2-0.3c-0.4-0.3-1.1-0.5-1.6-0.5c-0.6,0-1.2,0.1-1.7,0.2c-1.1,0.3-2.1,0.9-3.1,1.5C100.2,63.4,98.6,64.9,97.3,66.7
	C97.3,66.6,97.3,66.6,97.3,66.7C97.3,66.6,97.3,66.6,97.3,66.7c-0.1,0-0.2,0.1-0.3,0.2L97.3,66.7z M101.4,70.9
	C101.4,70.9,101.4,70.9,101.4,70.9c0,0-0.1-0.1-0.1-0.2C101.3,70.8,101.4,70.8,101.4,70.9"/>
<path class="st4" d="M144.3,73c-0.1-0.2-0.3-0.3-0.5-0.2l-6.1,3c-0.2,0.1-0.3,0.3-0.2,0.5c0.1,0.1,0.2,0.2,0.3,0.2
	c0.1,0,0.1,0,0.2,0l6.1-3C144.3,73.5,144.4,73.2,144.3,73"/>
<path class="st4" d="M137.8,73.8l2.3-2.4c0.1-0.2,0.1-0.4,0-0.5s-0.4-0.1-0.5,0l-2.3,2.4c-0.1,0.2-0.1,0.4,0,0.5
	c0.1,0.1,0.2,0.1,0.3,0.1C137.6,73.9,137.7,73.9,137.8,73.8"/>
<path class="st4" d="M141.6,78.5l-3-0.6c-0.2,0-0.4,0.1-0.4,0.3c0,0.2,0.1,0.4,0.3,0.4l3,0.6c0,0,0.1,0,0.1,0c0.2,0,0.3-0.1,0.4-0.3
	C142,78.7,141.8,78.5,141.6,78.5"/>
<path class="st4" d="M125,80.7c0.2,0,0.3-0.2,0.3-0.4s-0.1-0.4-0.3-0.4c-0.2,0-0.3,0.2-0.3,0.4S124.9,80.7,125,80.7"/>
<path class="st4" d="M124.3,81c0-0.2-0.1-0.4-0.3-0.4c-0.2,0-0.3,0.2-0.3,0.4s0.1,0.4,0.3,0.4S124.3,81.2,124.3,81"/>
<path class="st4" d="M126,79.1c-0.2,0-0.3,0.2-0.3,0.4s0.1,0.4,0.3,0.4c0.2,0,0.3-0.2,0.3-0.4C126.3,79.2,126.2,79.1,126,79.1"/>
<path class="st4" d="M127.3,79.7c-0.2,0-0.3,0.2-0.3,0.4s0.1,0.4,0.3,0.4c0.2,0,0.3-0.2,0.3-0.4C127.6,79.8,127.5,79.7,127.3,79.7"
	/>
<path class="st4" d="M126.3,80.5c-0.2,0-0.3,0.2-0.3,0.4s0.1,0.4,0.3,0.4c0.2,0,0.3-0.2,0.3-0.4S126.5,80.5,126.3,80.5"/>
<path class="st4" d="M127.3,81.6c0,0.2,0.1,0.4,0.3,0.4c0.2,0,0.3-0.2,0.3-0.4s-0.1-0.4-0.3-0.4S127.3,81.4,127.3,81.6"/>
<path class="st4" d="M126.3,81.9c-0.2,0-0.3,0.2-0.3,0.4s0.1,0.4,0.3,0.4c0.2,0,0.3-0.2,0.3-0.4C126.6,82.1,126.5,81.9,126.3,81.9"
	/>
<path class="st4" d="M125,82.1c0.2,0,0.3-0.2,0.3-0.4s-0.1-0.4-0.3-0.4c-0.2,0-0.3,0.2-0.3,0.4S124.9,82.1,125,82.1"/>
<path class="st4" d="M117.5,71.5C117.6,71.5,117.6,71.5,117.5,71.5c0.1-0.1,0.1-0.1,0.1-0.2c0.3-0.6,0.4-1.2,0.4-1.8
	c0,0.5-0.1,1-0.3,1.4c0-0.1,0-0.2,0-0.2c0-1-0.9-1.8-1.9-1.8c-0.8,0-1.5,0.5-1.8,1.2c0-0.2-0.1-0.4-0.1-0.6c0-0.6,0.1-1.3,0.4-1.8
	c0.3-0.5,0.8-1,1.4-1.1c0.6-0.1,1.2,0.3,1.6,0.9c0.4,0.6,0.6,1.3,0.6,1.9c0-0.7-0.1-1.4-0.5-2c-0.3-0.6-0.9-1.2-1.7-1.2
	c-0.8-0.1-1.5,0.5-1.9,1.1c-0.4,0.6-0.6,1.4-0.6,2.1c0,0.8,0.2,1.5,0.6,2.1c0.3,0.4,0.7,0.8,1.1,0.9c-0.2,0-0.5,0.1-0.7,0.2
	c-0.4,0.2-0.9,0.4-1.2,0.8l0,0.1c0.5-0.1,0.9-0.2,1.4-0.3c0.4-0.1,0.9-0.3,1.3-0.4c0.9-0.2,1.8-0.4,2.8-0.5v-0.1c-0.6,0-1.3,0-1.9,0
	C117.1,72.2,117.4,71.9,117.5,71.5"/>
<path class="st4" d="M112.9,65.8c-0.4,0.4-0.7,0.9-0.7,1.4c0.3-0.4,0.6-0.8,1-1.1c0.2-0.2,0.4-0.3,0.6-0.4c0.2-0.1,0.4-0.2,0.7-0.3
	C113.9,65.3,113.4,65.4,112.9,65.8"/>
<path class="st4" d="M91,74.3C82.2,71.2,71,61.4,59.3,51c-2.4-2.1-4.8-4.3-7.3-6.4c-4.1-3.6-8.4-5.2-12.9-4.8
	c-8,0.7-13.8,7.5-13.9,7.6l-0.7-0.6c0.2-0.3,6.1-7.2,14.5-7.9c4.7-0.4,9.3,1.3,13.6,5c2.5,2.1,4.9,4.3,7.3,6.4
	c11.7,10.3,22.7,20.1,31.4,23.2L91,74.3z"/>
<path class="st4" d="M22,98.7c0.2-0.4,0.3-1,0.1-1.4c-0.1-0.5-0.4-0.9-0.9-1.1c-0.4-0.2-1-0.4-1.5-0.4c-0.5-0.1-1.1,0-1.6,0
	c0.5-0.1,1.1-0.1,1.6-0.1c0.5,0,1.1,0.1,1.6,0.3c0.5,0.2,1,0.7,1.1,1.2c0.2,0.6,0.1,1.1,0,1.7L22,98.7z"/>
<g>
	<g>
		<g>
			<path class="st4" d="M95.3,69.9c-0.1,0.2-0.2,0.4-0.2,0.6c-0.4,1.7,0,5.1,0.9,5.5c1,0.5,1.9,2.4,2.1,2.6c0.1,0.2,0.2,1,1.7,2.2
				s2.2,1.6,2.2,1.6s0,0,0,0c-0.7-0.5-1.4-1.1-1.9-1.8c-0.4-0.5-0.8-0.9-1.2-1.4c-0.1-0.2-0.2-0.5-0.4-0.8c-0.5-1-1.2-1.9-2-2.8
				c-0.7-0.7-1.1-1.7-1.2-2.8c-0.1-1.1,0-2.2,0.2-3.2C95.4,69.7,95.4,69.8,95.3,69.9c0.1-0.1,0.1-0.1,0.1-0.1
				C95.3,69.8,95.3,69.9,95.3,69.9z"/>
			<path class="st4" d="M135.7,76.7c0-0.1,0-0.2-0.1-0.3c-0.1-0.3-0.3-0.5-0.6-0.6c-0.1-0.1-0.2-0.2-0.3-0.2c-0.3-0.2-0.7-0.4-1-0.5
				c-2.7-1.1-5.5-1.7-8.3-2.4c-1.4-0.3-1-0.3-2.3-0.9c-1.3-0.6-2.3-1.1-2.9-2.3c-0.1-0.3-0.2-0.6-0.3-1c0-0.3,0-0.7-0.1-1.1
				c-0.1-0.5-0.3-1.1-0.6-1.5c-0.7-1.2-1.6-1.9-1.6-1.9c-5.6-3.8-8.8-5.1-10.1-5.5c-0.1,0-0.1,0-0.1,0c0,0,0,0,0,0
				c-0.1,0-0.1,0-0.2-0.1c-0.2-0.1-0.5-0.1-0.7-0.1c-1-0.2-2-0.2-3,0c-1.5,0.3-2.9,1-4,1.9c-0.6,0.4-1.1,0.9-1.7,1.4
				c-0.5,0.5-1.1,0.9-1.6,1.4c-1.1,1-1.9,2.3-2.5,3.7c-0.3,0.7-0.5,1.4-0.7,2c-0.2,0.7-0.4,1.4-0.7,2c-0.3,0.6-0.6,1.2-1.1,1.7
				c-0.3,0.3-0.6,0.5-1,0.7c0,0.3,0,0.5-0.1,0.7c0.9,0.4,1.8,0.7,3,0.6c0,0,0.1,0,0.1-0.1c0,0,0-0.1-0.1-0.1
				c-0.6-0.1-1.3-0.2-1.9-0.4c0.1-0.1,0.3-1.1,0.9-1.9c0.3-0.3,0.5-0.7,0.7-1.1c0.4-0.7,0.6-1.3,0.8-2s0.5-1.3,0.8-1.9
				c0.6-1.3,1.4-2.4,2.4-3.3c0.5-0.5,1.1-0.9,1.6-1.3s1.1-0.9,1.7-1.3c1.1-0.8,2.4-1.4,3.7-1.7c1.3-0.3,2.7-0.1,4,0.2
				c1.3,0.3,2.6,1,3.9,1.6c1.3,0.6,2.5,1.3,3.8,2c1.2,0.7,2.5,1.4,3.4,2.5c0.4,0.5,0.8,1.1,0.9,1.8c0.1,0.3,0.1,0.7,0.1,1
				c0,0.4,0.1,0.7,0.3,1.1c0.3,0.7,0.9,1.2,1.4,1.7c0.6,0.4,1.2,0.7,1.8,0.9l-3.7-0.2l4.3,0.8c0,0,0,0,0,0c0,0,0,0,0,0
				c0.5,0.1,0.9,0.2,1.4,0.4c2.3,0.6,4.7,1.3,6.9,2.2c-1.5,0.3-2.9,0.8-2.9,1.6c0.3,3,1.1,3.7,2.3,4.6c0.1,0.1,0.3,0.2,0.4,0.3
				c-0.6,0.8-1.4,1.7-2.1,2.4c-0.4,0.4-0.9,0.8-1.3,1.1c-0.3,0.2-0.6,0.4-0.9,0.5c-1.2,0.3-1.9,0.3-3.2,0.1
				c-1.9-0.3-2.6-0.5-4.4-1.1c-0.9-0.3-1.8-0.6-2.7-0.9c-0.2-0.1-0.4-0.2-0.6-0.3c0.4-0.2,0.8-0.4,1-0.8c0,0,0,0,0,0c0,0,0,0-0.1,0
				c-0.5,0.1-0.9,0.2-1.4,0.2c-0.4,0-0.9,0.2-1.3,0.2c-0.5,0.1-0.9,0.1-1.4,0.1c-0.5,0-0.9,0-1.4-0.1c0,0,0,0,0,0c0,0,0,0,0,0.1
				c0.9,0.3,1.9,0.5,2.9,0.6c0.4,0,0.9,0.1,1.4-0.1c0.2,0.2,0.5,0.4,0.8,0.5c0.9,0.5,1.8,0.8,2.7,1.2c1.8,0.7,2.5,0.9,4.4,1.2
				c1.1,0.2,1.2,0.3,2.4,0.4c0,0.1,0,0.2-0.1,0.2c-0.1,0.2-0.2,0.4-0.4,0.5c-0.4,0.3-1,0.5-1.6,0.5c-0.6,0.1-0.2,0.1-0.9,0
				c-0.6-0.1-0.1,0.1-0.8,0c-2.7-0.3-5.4-0.3-8-0.5c-2.6-0.2-5.2-0.6-7.6-1.8c-2.3-1.2-4.2-3.1-5.6-5.4c0,0-0.1,0-0.1,0
				c0,0,0,0.1,0,0.1c0.5,0.9,1.1,1.8,1.7,2.6c0,0,0,0,0,0c1.2,1.5,3.3,3.3,3.3,3.3c-8-1.5-11.3,2.5-12.6,4.4c-1.3,1.9-5.3,2-5.3,2
				c-2.4-0.6-4.3-3.9-4.8-4.7c0,0,0,0,0,0c0-0.1,0-0.1-0.1-0.2c0,0,0-0.1,0-0.1l0,0c-0.4-1.1-0.6-2.2-0.4-3.3v0c0,0,0,0,0,0
				c0,0,0,0-0.1,0c-0.6,1.8-0.1,3.9,0.9,5.5c1,1.6,2.6,2.9,4.3,3.7c1.7,0.9,3.5,1.3,5.2,2c0.8,0.3,1.7,0.6,2.3,1.2
				c0.3,0.3,0.5,0.6,0.5,1c0,0.4-0.1,0.8-0.4,1.1c-0.7,0-1.4,0-2.1,0.1c0.1-0.6,0.1-1.1,0-1.7c-0.2-0.7-0.7-1.2-1.3-1.4
				C92.3,96.1,91.7,96,91,96s-1.3,0.1-1.9,0.1c0.6,0,1.3-0.1,1.9,0c0.6,0.1,1.2,0.2,1.8,0.5c0.5,0.3,1,0.8,1.1,1.3
				c0.1,0.5,0.1,1.1-0.1,1.6c-0.8,0-1.7,0-2.5,0l-5.2-0.2c-0.9,0-1.7,0-2.6,0c-0.9,0-1.7,0-2.4-0.3c-0.7-0.3-1.3-0.9-1.8-1.6
				c-0.5-0.7-0.9-1.4-1.3-2.2c0,0,0,0-0.1,0c0,0,0,0,0,0.1c0.3,0.8,0.6,1.6,1.1,2.4c0.5,0.8,1,1.5,1.9,1.9c0.9,0.4,1.8,0.4,2.7,0.4
				c0.9,0,1.7,0,2.6,0l5.2-0.2c1.7,0,3.5,0,5.2,0.1c0.1,0,0.1,0,0.1-0.1l0,0c0.3-0.4,0.6-0.9,0.6-1.4c0-0.5-0.2-1.1-0.6-1.4
				c-0.3-0.4-0.8-0.6-1.2-0.9c-0.4-0.2-0.9-0.4-1.3-0.6c-1.6-0.6-3.1-1.1-4.6-1.8c1.6-0.1,4.1-0.5,5.2-2.3c0.1-0.2,0.3-0.4,0.4-0.6
				c0.5-0.6,1.1-1.1,1.8-1.6c0,0,0,0,0,0c0,0,0,0,0,0c0.5-0.4,1.1-0.7,1.7-1c2-0.8,4.8-1.2,9.1-0.6c0.1,0,0.7,0.1,1.2,0.2
				c1.9,0.8,4,1.1,6,1.3c2.7,0.3,5.3,0.3,7.9,0.7c1.3,0.2,0.4,0.2,1.9,0.1c0.7-0.1,1.5-0.2,2.2-0.8c0.3-0.3,0.6-0.6,0.8-1
				c0.1-0.2,0.1-0.5,0.2-0.7c0.5-0.2,1-0.5,1.4-0.8c0.5-0.4,1-0.8,1.4-1.3c0.9-0.9,1.6-1.8,2.3-2.8c0.3-0.2,0.6-0.4,0.9-0.7
				c0,0,0.1,0,0.1,0c0,0,0.1-0.1,0.1-0.1c0.2-0.2,0.4-0.4,0.6-0.6c0.5-0.5,1-1.2,1.2-2.1C136.1,78.1,135.8,77.3,135.7,76.7z"/>
			<path class="st4" d="M103.1,83.1c-1-1.5-1.3-0.8-1.3-0.7c0.5,0.4,1.1,0.8,1.6,1.2C103.4,83.4,103.2,83.2,103.1,83.1z"/>
		</g>
		<path class="st4" d="M76.5,93c-0.6-0.4-1.2-0.6-1.8-0.9c-1.2-0.6-2.3-1.2-3-2.2c-0.8-0.9-1.5-2.1-2-3.2c-0.5-1.1-0.8-2.4-0.8-3.6
			c0-0.3,0-0.6,0.1-0.9c0-0.2,0.1-0.3,0.1-0.4l0.1-0.2c0-0.1,0-0.1,0.1-0.1c0.2-0.4,0.8-0.8,1.3-1.2c1.1-0.7,2.2-1.3,3.4-1.9
			c1.2-0.6,2.4-1.1,3.6-1.6c-2.6,0.6-5.1,1.4-7.5,2.7c-0.6,0.4-1.2,0.7-1.7,1.4c-0.1,0.1-0.1,0.2-0.1,0.3l-0.1,0.3
			C68.1,81.6,68,81.8,68,82c-0.1,0.3-0.1,0.7-0.1,1.1c0,0.6,0,1.3,0.1,1.9l0,0l0,0c0.6,2.8,3.3,7,5.5,7.6c2.2,0.6,3,1.4,3,1.4
			c-11-1.8-20.4-7.2-28.4-12.2c-8-5-8.8-8.9-8.8-8.9c2.2-3.4,2.4-8.4,2.5-9.7c0.1-3.3-0.8-6.6-2.9-9c1.9,3.3,2.3,7.2,1.6,10.8
			c-0.8,3.6-2.5,6.9-4.8,9.9c-2.3,3-4.8,6-6.6,9.4c-0.4,0.9-0.9,1.8-1.1,2.8c-0.3,1-0.3,2-0.1,3s0.6,1.9,0.9,2.8
			c0.3,0.7,0.5,1.4,0.7,2.1c-0.3-0.1-0.7-0.2-1-0.3c0.8,0.2,1.5,0.6,2.2,0.9c0.3,0.2,0.7,0.4,1.1,0.5c0.1,0,0.2,0.1,0.3,0.1
			c0.1,0,0.1,0,0.2,0c0,0,0.1,0,0.1,0c0.2,0.1,0.3,0.1,0.5,0.2c0.6,0.4,1.2,1,1.6,1.6c0.1,0.1,0.2,0.3,0.3,0.4c0,0.1,0,0.2,0,0.3
			c-0.1,0.2-0.5,0.4-0.8,0.5c-0.2,0-0.4,0-0.6,0c0.1-0.5,0.1-1-0.1-1.4c-0.2-0.7-0.7-1.2-1.3-1.4c-0.6-0.3-1.3-0.4-1.9-0.4
			s-1.3,0.1-1.9,0.1c0.6,0,1.3-0.1,1.9,0c0.6,0.1,1.2,0.2,1.8,0.5c0.6,0.3,1,0.8,1.1,1.3c0.1,0.4,0.1,0.9,0,1.3
			c-2.5,0-4.9,0-7.4,0.1c-0.2,0-0.6-0.4-0.7-0.8c-0.2-0.4-0.3-0.9-0.2-1.3c0.1-0.5,0.1-1,0.2-1.5c0-0.5,0-1,0-1.5l-0.2,1.5
			c0,0.1-0.1,0.3-0.1,0.5c-0.1-1.1-0.3-2.1-0.4-3.2l-0.3-1.6c-0.1-0.3-0.1-0.5-0.2-0.9c-0.1-0.3-0.2-0.6-0.3-0.9
			c-0.4-1.1-0.9-2.1-1.3-3.1c-0.3-0.8-0.6-1.6-0.8-2.4c-0.1-0.6-0.1-1.1-0.1-1.7c0-0.2,0-0.3-0.1-0.5c0.1-0.4,0.2-0.7,0.4-1.1
			c0.2-0.4,0.5-0.7,0.9-1c0.1,0,0.1-0.1,0.2-0.1c0,0,0.1,0,0.1,0c0,0,0.1-0.1,0.1-0.1c0-0.1,0.1-0.1,0.1-0.1
			c0.1-0.1,0.1-0.1,0.2-0.2c0.2-0.2,0.4-0.4,0.6-0.6c1.5-1.8,2.3-4.1,2.1-6.4c-0.2,1.3-0.7,2.5-1.3,3.6c0-0.1-0.1-0.2-0.1-0.3
			c0.1-0.6,0-1.2,0-1.9c-0.1-1.2-0.3-2.5-0.8-3.6c-0.9-2.3-1.8-4.5-2.4-6.8c-0.6-2.3-0.8-4.7-0.2-6.8c0.3-0.9,0.6-1.7,1-2.6
			c0.4-0.8,0.8-1.7,1.3-2.5c0.3-0.4,0.5-0.9,0.8-1.3c0.2-0.4,0.5-0.8,0.8-1.2c0,0,0.1-0.1,0.1-0.1c0.1-0.1,0.3-0.3,0.2-0.2
			c0,0,2.2-2.8,3.5-4c0.2-0.2,0.5-0.4,0.7-0.6c0,0,0.1,0,0.1-0.1c0.6-0.5,1.3-1.1,2-1.5c1-0.6,2.1-1.1,3.2-1.6l0,0
			c-0.1-0.1-0.2-0.3-0.2-0.5c-1.1,0.4-2.3,0.9-3.4,1.5c-0.8,0.4-1.5,0.9-2.2,1.5c-2.1,0.6-6.3,0.4-9.3-1.9c-2.2-1.7-3.4-4.1-3.4-7.2
			c-0.1-8.8-0.4-10-0.9-12.3l-0.1-0.5c-0.6-2.8-2.6-4.5-2.7-4.5c-0.1-0.1-0.2-0.1-0.3-0.1c-0.1,0-2.6,0.4-2.1,5.3
			c0.2,2-0.1,4-0.5,6.1c-0.5,2.7-1,5.6-0.4,8.9c0.9,5.6,8.1,11.5,10.5,13.4l0.2,0.2c0.6,0.8,1.1,1.6,1.1,2.5c-0.5,1-0.9,2-1.2,3.1
			c-0.1,0.3-0.2,0.7-0.3,1c-0.3,0.6-0.6,1.5-0.8,2.6v0c0,0,0,0.1,0,0.2c-0.2,1.1-0.3,2.5,0,3.9c0.1,0.4,0.2,0.9,0.3,1.4
			c0,0.1,0,0.2,0,0.3c0.1,0.6,0.3,1.2,0.5,1.8c0.6,2.6,1.3,5,1.6,5.7c-0.5,1.3-1.4,2.9-2.5,3.8l-0.5,0.4c-1.3,1.1-2,1.7-2.2,2.9
			c-0.2,0.5-0.2,1,0,1.4c0.1,1.7,0.4,6.1,0.5,7.9c-0.2,0.8-0.4,1.7-0.5,2.5c-0.2,1-0.3,2-0.4,3c0,0.5-0.1,1,0,1.6
			c0,0.5,0.1,0.9,0.4,1.4c0,0,0,0.1,0,0.1c0,0,0,0,0,0c0,0,0,0.1,0,0.1l0,0l0,0l1.1,1.2c0.1,0.1,0.2,0.1,0.3,0.1h0
			c2.2,0,4.3,0,6.5,0h0c0.1,0,0.2-0.1,0.3-0.2c0.2-0.4,0.3-0.7,0.4-1.1c0,0.2,0.1,0.5,0.2,0.7c0.1,0.2,0.2,0.5,0.4,0.7
			c0.2,0.2,0.4,0.5,0.8,0.5l0,0h0c2.8,0.1,5.7,0.1,8.6,0.1h0c0,0,0.1,0,0.1,0c0.4-0.2,0.8-0.3,1.1-0.8c0.2-0.2,0.2-0.6,0.1-0.9
			c-0.1-0.3-0.3-0.4-0.4-0.5c-0.6-0.6-1.1-1.2-1.8-1.6c-0.2-0.1-0.4-0.2-0.6-0.3c-0.1,0-0.1,0-0.2,0c-0.1,0-0.1,0-0.1,0
			c-0.1,0-0.2,0-0.3-0.1c-0.4-0.1-0.7-0.3-1.1-0.4c-0.4-0.1-0.8-0.3-1.2-0.4c-0.1-0.8-0.2-1.5-0.4-2.3c-0.2-0.9-0.5-1.9-0.6-2.8
			c-0.2-1.8,0.6-3.5,1.6-5.1c1-1.6,2.1-3.1,3.2-4.6c0.6-0.8,1.2-1.5,1.8-2.2c0.6-0.7,1.2-1.5,1.8-2.2c0.5-0.6,0.9-1.3,1.3-2
			c1,2.5,5.2,8,21.5,15.7c0.1,0.1,8.4,4.5,18,5.4c0,0,0,0,0,0c0.1,0,0.2,0,0.3-0.1c0.9,0.8,1.6,1.8,2.3,2.9
			c-0.4-1.2-1.1-2.5-2.1-3.4C77.6,93.7,77.1,93.3,76.5,93z M10.6,39.6C8.3,35.2,9.9,29.7,10,29s0.4-4.3,0.6-5.1
			c0.1-0.8-0.3-3.2,0-4.7c0.3-1.4,1.2-1.7,1.2-1.7l0,0l0,0c0.4,0.4,1.8,1.8,2.3,4l0.1,0.5c0.5,2.3,0.7,3.4,0.9,12.2
			c0.1,3.4,1.3,6.1,3.8,7.8c2.6,1.9,6.1,2.4,8.6,2.2c-0.8,0.7-1.5,1.4-2.2,2.1c-0.1,0.1-0.2,0.2-0.3,0.4c-2,2.5-3.1,4.2-3.1,4.2
			C20.9,50.6,12.8,43.9,10.6,39.6z M23.1,98.7l-6.3,0.1l-1-1.4c-1.1-2.2,0.7-8.3,0.7-8.3s-0.4-4.2-0.6-6.7c-0.3-2.5,0.5-3.7,1-4
			c0.5-0.3,2-1.6,2.7-2.1c0.6-0.6,1.9-3.6,1.9-3.6l-0.2-0.7c-2-6.8-2.1-8.5-2.4-10.4c-0.2-1.2,0.5-3.6,0.5-3.6c0.2-1,1-2.7,1-2.7
			c-1,4.2-0.1,8.1,1,10.5c1.1,2.4,1.6,4.2,2.2,6.2c0.6,2.1,0.2,3.3,0.2,3.9s0.2,0.7,0.2,0.7s-0.6,1.2-1.4,1.9
			c-0.9,0.6-1.6,0.8-2.4,2.7s0.6,5.6,0.6,5.6s-0.5,0-0.5,3.3s1.1,5.1,1.1,5.1c2.8,1.5,2.4,1.8,2.4,1.8C24,97.8,23.1,98.7,23.1,98.7z
			 M24,97.1c0-0.2-0.1-0.4-0.3-0.6c-0.2-0.2-0.4-0.4-0.6-0.5c0,0,0-0.1-0.1-0.1c-0.1,0-0.1,0-0.2,0c-0.4-0.3-0.9-0.5-1.3-0.8
			c-0.2-0.1-0.4-0.3-0.4-0.4c-0.1-0.3-0.1-0.6-0.2-0.8c-0.2-1.1-0.4-2.1-0.5-3.2c0-0.1,0-0.1,0-0.2c0-0.6,0.1-1.3,0.2-1.9
			c0-0.1,0.1-0.2,0.1-0.4c0.3,0.7,0.7,1.4,1,2.1c0.2,0.5,0.4,0.9,0.5,1.5l0.5,1.6c0.4,1,0.7,2.1,1.2,3.1
			C24.1,96.5,24.1,96.8,24,97.1z"/>
	</g>
	<path class="st0" d="M11.3,20.9c0.2,6.3-1.2,13.6,2,19.3c1.6,2.8,4.5,4.1,6.8,6l0,0c-0.1-0.3,2.2,1.7,4.2,1.1c0,0,0,0,0,0
		c0.3-0.3,0.6-0.7,0.9-1c1.4-2.2-3.1-0.8-3.1-0.8l-5.9-3.3l-3.9-11.7c0,0,0.2-12.1-0.6-13C11,17.8,11.3,20.9,11.3,20.9z"/>
</g>
<line class="st5" x1="162.2" y1="26" x2="169.9" y2="24.4"/>
<path class="st4" d="M162.2,26c1.2-0.6,2.5-0.9,3.8-1.2c1.3-0.2,2.6-0.4,3.9-0.4c-1.2,0.6-2.5,0.9-3.8,1.2
	C164.9,25.9,163.6,26.1,162.2,26"/>
<path class="st6" d="M87.7,61.9c-2.7,0-5.1-0.3-7.3-0.8c-2.2-0.5-4.1-1.3-5.7-2.2c-1.6-0.9-2.9-2.1-3.7-3.4
	c-0.9-1.3-1.4-2.8-1.4-4.4c0-0.9,0.1-1.8,0.4-2.6c0.3-0.9,0.7-1.7,1.3-2.4c0.6-0.7,1.4-1.3,2.3-1.7c0.9-0.4,2-0.6,3.1-0.6
	c1.3,0,2.4,0.3,3.4,0.8c0.8,0.4,1.6,0.9,2.4,1.4c0.7,0.5,1.5,0.9,2.4,1.3c0.8,0.3,1.9,0.5,3.2,0.5c1.4,0,2.5-0.3,3.2-0.8
	c0.8-0.6,0.9-1.2,0.9-1.5c0-0.5-0.1-1-1-1.4c-1-0.5-2.4-1-3.9-1.4c-1.6-0.5-3.4-1-5.3-1.5c-2-0.6-3.9-1.5-5.6-2.6
	c-1.8-1.2-3.3-2.8-4.4-4.7c-1.2-2-1.8-4.6-1.8-7.8c0-2.2,0.5-4.4,1.4-6.3c0.9-1.9,2.2-3.6,4-5.1c1.7-1.4,3.8-2.5,6.1-3.4
	c2.4-0.8,5-1.2,7.9-1.2c2.3,0,4.4,0.3,6.3,0.8c1.9,0.6,3.6,1.3,5,2.3c1.4,1,2.5,2.1,3.3,3.3c0.8,1.3,1.2,2.6,1.2,4
	c0,2.1-0.7,3.8-2.1,5.1c-1.4,1.3-3,2-4.8,2c-1.5,0-2.7-0.2-3.6-0.6c-0.8-0.4-1.6-0.8-2.2-1.2c-0.6-0.4-1.2-0.8-1.9-1.1
	c-0.4-0.2-1.1-0.4-2.6-0.4c-1.4,0-2.2,0.3-2.5,0.5c-0.5,0.3-0.6,0.7-0.6,0.9c0,0.5,0.1,1,1,1.5c1,0.5,2.3,1,3.9,1.4
	c1.6,0.4,3.5,0.9,5.4,1.5c2,0.6,3.9,1.5,5.7,2.6c1.8,1.2,3.3,2.8,4.4,4.8c1.2,2,1.8,4.7,1.8,7.9c0,2-0.4,4-1.3,6
	c-0.8,2-2.1,3.8-3.8,5.4s-3.7,2.9-6.1,3.8C93.7,61.4,90.9,61.9,87.7,61.9"/>
<path class="st6" d="M128.3,61.9c-2.6,0-5-0.4-7.2-1.3c-2.2-0.9-4.3-2.2-5.9-3.9c-1.7-1.7-3.1-3.8-4-6.2c-1-2.4-1.5-5.2-1.5-8.2
	c0-2.7,0.5-5.2,1.4-7.5s2.2-4.4,3.9-6.1c1.6-1.7,3.6-3.1,5.9-4.1c2.3-1,4.8-1.5,7.5-1.5c2.6,0,5,0.5,7.1,1.5c2,1,3.8,2.3,5.2,3.9
	c1.4,1.6,2.5,3.5,3.2,5.6c0.7,2.1,1.1,4.3,1.1,6.7c0,1.3-0.2,2.4-0.5,3.2c-0.4,0.9-0.9,1.6-1.6,2c-0.6,0.4-1.3,0.8-2.1,0.9
	c-0.7,0.1-1.4,0.2-2,0.2h-13.9c0.3,0.6,0.6,1.1,1.2,1.5c0.9,0.8,1.9,1.1,3,1.1c1.6,0,2.4-0.2,2.8-0.3c0.6-0.2,1.1-0.5,1.4-0.8
	c0.5-0.4,1-0.7,1.5-1c0.7-0.4,1.6-0.5,2.9-0.5c1.7,0,3.1,0.6,4.1,1.8c0.9,1.2,1.4,2.5,1.4,3.9c0,1.6-0.4,3-1.4,4.1
	c-0.8,1.1-2,2-3.3,2.7c-1.3,0.7-2.9,1.2-4.6,1.6C131.9,61.7,130.1,61.9,128.3,61.9 M128.1,34.8c-1.2,0-2.1,0.4-2.8,1.2
	c-0.5,0.5-0.8,1.1-1,1.8l7.3-0.1c-0.1-0.7-0.4-1.3-0.8-1.8C130.2,35.2,129.3,34.8,128.1,34.8"/>
<path class="st6" d="M165,61.9c-2.6,0-5-0.4-7.2-1.3s-4.3-2.2-5.9-3.9c-1.7-1.7-3.1-3.8-4-6.2c-1-2.4-1.5-5.2-1.5-8.2
	c0-2.7,0.5-5.2,1.4-7.5c0.9-2.3,2.2-4.4,3.9-6.1c1.6-1.7,3.6-3.1,5.9-4.1c2.3-1,4.8-1.5,7.5-1.5c2.6,0,5,0.5,7.1,1.5
	c2,1,3.8,2.3,5.2,3.9c1.4,1.6,2.5,3.5,3.2,5.6c0.7,2.1,1.1,4.3,1.1,6.7c0,1.3-0.2,2.4-0.5,3.2c-0.4,0.9-0.9,1.6-1.6,2
	c-0.6,0.4-1.3,0.8-2.1,0.9c-0.7,0.1-1.4,0.2-2,0.2h-13.9c0.3,0.6,0.6,1.1,1.2,1.5c0.9,0.8,1.9,1.1,3,1.1c1.6,0,2.4-0.2,2.8-0.3
	c0.6-0.2,1.1-0.5,1.4-0.8c0.5-0.4,1-0.7,1.5-1c0.7-0.4,1.6-0.5,2.9-0.5c1.7,0,3.1,0.6,4.1,1.8c0.9,1.2,1.4,2.5,1.4,3.9
	c0,1.6-0.4,3-1.4,4.1c-0.8,1.1-2,2-3.3,2.7c-1.3,0.7-2.9,1.2-4.6,1.6C168.7,61.7,166.9,61.9,165,61.9 M164.8,34.8
	c-1.2,0-2.1,0.4-2.8,1.2c-0.5,0.5-0.8,1.1-1,1.8l7.3-0.1c-0.1-0.7-0.4-1.3-0.8-1.8C166.9,35.2,166.1,34.8,164.8,34.8"/>
<path class="st6" d="M221.9,61.9c-1.4,0-2.6-0.3-3.5-0.9c-0.9-0.6-1.6-1.4-2.1-2.3c-0.5-0.9-0.8-1.9-0.9-3c-0.2-1.1-0.2-2.1-0.2-3.2
	V41.8l-3.9,8.5c-0.5,1.1-1.1,1.9-1.9,2.6c-0.8,0.7-1.9,1-3.1,1c-1.1,0-2.2-0.3-3-1c-0.8-0.6-1.5-1.5-2-2.5l-3.9-8.5v10.6
	c0,1.1-0.1,2.2-0.2,3.2c-0.1,1.1-0.5,2.1-0.9,3c-0.5,1-1.2,1.7-2.1,2.3c-0.9,0.6-2.1,0.9-3.5,0.9s-2.6-0.3-3.5-0.9
	c-0.9-0.6-1.6-1.4-2.1-2.3c-0.5-0.9-0.8-1.9-0.9-3c-0.2-1.1-0.2-2.1-0.2-3.2V18.9c0-2.6,0.6-4.8,1.8-6.3c1.3-1.7,3.1-2.5,5.4-2.5
	c1.8,0,3.4,0.5,4.6,1.6c1.1,1,2,2.2,2.7,3.7l8,17.4l8-17.4c0.7-1.5,1.6-2.7,2.7-3.7c1.2-1,2.7-1.6,4.6-1.6c2.3,0,4.1,0.8,5.4,2.5
	c1.2,1.6,1.8,3.7,1.8,6.3v33.6c0,1.1-0.1,2.2-0.2,3.2c-0.1,1.1-0.5,2.1-0.9,3c-0.5,0.9-1.2,1.7-2.1,2.3
	C224.5,61.6,223.3,61.9,221.9,61.9"/>
<path class="st6" d="M250.4,61.9c-2.5,0-5-0.4-7.2-1.3s-4.3-2.2-6-3.9c-1.7-1.7-3.1-3.8-4-6.2c-1-2.4-1.5-5.2-1.5-8.2
	c0-2.7,0.5-5.2,1.4-7.5c0.9-2.3,2.2-4.4,3.9-6.1c1.6-1.7,3.6-3.1,5.9-4.1c2.3-1,4.8-1.5,7.5-1.5c2.6,0,5,0.5,7,1.5
	c2,1,3.8,2.3,5.2,3.9c1.4,1.6,2.5,3.5,3.2,5.6c0.7,2.1,1.1,4.3,1.1,6.7c0,1.3-0.2,2.4-0.5,3.2c-0.4,0.9-0.9,1.6-1.5,2
	c-0.6,0.4-1.3,0.8-2.1,0.9c-0.7,0.1-1.4,0.2-2,0.2h-14c0.3,0.6,0.6,1.1,1.2,1.5c0.9,0.8,1.9,1.1,3,1.1c1.6,0,2.4-0.2,2.8-0.3
	c0.6-0.2,1.1-0.5,1.4-0.8c0.5-0.4,1-0.7,1.5-1c0.7-0.4,1.6-0.5,2.9-0.5c1.7,0,3.1,0.6,4.1,1.8c0.9,1.2,1.4,2.5,1.4,3.9
	c0,1.6-0.5,3-1.4,4.1c-0.8,1.1-2,2-3.3,2.7c-1.3,0.7-2.9,1.2-4.6,1.6C254,61.7,252.2,61.9,250.4,61.9 M250.2,34.8
	c-1.2,0-2.1,0.4-2.8,1.2c-0.5,0.5-0.8,1.1-1,1.8l7.3-0.1c-0.1-0.7-0.4-1.3-0.8-1.8C252.3,35.2,251.4,34.8,250.2,34.8"/>
<path class="st6" d="M287.2,61.9c-2.7,0-5.1-0.3-7.3-0.8c-2.2-0.5-4.1-1.3-5.7-2.2c-1.6-0.9-2.9-2.1-3.7-3.4
	c-0.9-1.3-1.4-2.8-1.4-4.4c0-0.9,0.1-1.8,0.4-2.6c0.3-0.9,0.7-1.7,1.3-2.4c0.6-0.7,1.4-1.3,2.3-1.7c0.9-0.4,2-0.6,3.1-0.6
	c1.3,0,2.4,0.3,3.4,0.8c0.8,0.4,1.6,0.9,2.4,1.4c0.7,0.5,1.5,0.9,2.4,1.3c0.8,0.3,1.9,0.5,3.2,0.5c1.4,0,2.5-0.3,3.2-0.8
	c0.8-0.6,0.9-1.2,0.9-1.5c0-0.5-0.1-1-1-1.4c-1-0.5-2.4-1-3.9-1.4c-1.6-0.5-3.4-1-5.3-1.5c-2-0.6-3.9-1.5-5.6-2.6
	c-1.8-1.2-3.3-2.8-4.5-4.7c-1.2-2-1.8-4.6-1.8-7.8c0-2.2,0.5-4.4,1.4-6.3c0.9-1.9,2.2-3.6,4-5.1c1.7-1.4,3.8-2.5,6.1-3.4
	c2.4-0.8,5-1.2,8-1.2c2.3,0,4.4,0.3,6.3,0.8c1.9,0.6,3.6,1.3,5,2.3c1.4,1,2.5,2.1,3.3,3.3c0.8,1.3,1.2,2.6,1.2,4
	c0,2.1-0.7,3.8-2.1,5.1c-1.4,1.3-3,2-4.8,2c-1.5,0-2.7-0.2-3.6-0.6c-0.8-0.4-1.6-0.8-2.2-1.2c-0.6-0.4-1.2-0.8-1.9-1.1
	c-0.4-0.2-1.1-0.4-2.6-0.4c-1.4,0-2.2,0.3-2.5,0.5c-0.5,0.3-0.6,0.7-0.6,0.9c0,0.5,0.1,1,1,1.5c1,0.5,2.3,1,3.9,1.4
	c1.6,0.4,3.5,0.9,5.4,1.5c2,0.6,3.9,1.5,5.7,2.6c1.8,1.2,3.3,2.8,4.5,4.8c1.2,2,1.8,4.7,1.8,7.9c0,2-0.4,4-1.3,6
	c-0.8,2-2.1,3.8-3.8,5.4c-1.6,1.6-3.7,2.9-6.1,3.8C293.2,61.4,290.4,61.9,287.2,61.9"/>
<path class="st6" d="M335.8,61.9c-1.8,0-3.2-0.5-4.3-1.4c-0.5-0.4-0.9-0.9-1.2-1.5c-0.7,0.6-1.5,1.1-2.4,1.6
	c-1.6,0.8-3.7,1.3-6.2,1.3c-1.8,0-3.6-0.3-5.2-0.9c-1.6-0.6-3-1.5-4.3-2.6c-1.2-1.1-2.2-2.5-2.9-4.2c-0.7-1.6-1-3.5-1-5.5
	c0-2.2,0.4-4.2,1.2-5.8c0.8-1.6,1.9-2.9,3.2-4c1.3-1,2.9-1.8,4.6-2.2c1.7-0.5,3.4-0.7,5.2-0.7c1.2,0,2.5,0.2,3.8,0.5
	c0.5,0.1,1,0.3,1.4,0.5c0-0.1,0-0.1,0-0.2c-0.1-0.6-0.3-1.2-0.5-1.6c-0.2-0.4-0.5-0.7-0.9-0.9s-1-0.3-1.7-0.3
	c-0.8,0-1.4,0.1-1.9,0.3c-0.6,0.2-1.1,0.5-1.6,0.8c-0.6,0.3-1.2,0.6-1.8,0.8c-0.7,0.3-1.6,0.5-2.6,0.5c-1.9,0-3.4-0.6-4.2-1.7
	c-0.8-1-1.2-2.3-1.2-3.8c0-1.5,0.5-2.7,1.6-3.8c1-0.9,2.2-1.7,3.6-2.3c1.4-0.6,3-1,4.7-1.2c1.7-0.2,3.4-0.4,5.1-0.4
	c2.7,0,5,0.4,7,1.1c2,0.7,3.6,1.8,4.9,3.1s2.2,2.9,2.8,4.7c0.6,1.8,0.9,3.6,0.9,5.6v12.2c0,0.9,0.1,1.8,0.3,2.4
	c0.2,0.8,0.4,1.8,0.4,2.9c0,0.7-0.1,1.5-0.3,2.2c-0.2,0.8-0.6,1.5-1.1,2.2c-0.5,0.7-1.2,1.3-2.1,1.7C338.1,61.7,337,61.9,335.8,61.9
	 M325.4,45.7c-0.8,0-1.4,0.2-2,0.6c-0.3,0.2-0.7,0.7-0.7,1.8c0,0.8,0.2,1.4,0.6,1.8c0.5,0.4,1.1,0.6,2,0.6c0.4,0,0.8-0.1,1.1-0.2
	c0.4-0.2,0.7-0.3,0.9-0.6c0.1-0.1,0.2-0.2,0.3-0.4c0.1-0.2,0.1-0.4,0.1-0.6v-2.1C327.2,46.1,326.4,45.7,325.4,45.7"/>
<path class="st6" d="M360.8,61.9c-2.1,0-3.8-0.5-5-1.5c-1.1-0.9-1.9-2-2.5-3.2l-9.6-22c-0.3-0.7-0.6-1.4-0.8-2.1
	c-0.2-0.8-0.3-1.6-0.3-2.5c0-1,0.2-1.9,0.6-2.8c0.4-0.9,1-1.7,1.8-2.4c0.7-0.7,1.6-1.2,2.5-1.6c1-0.4,2-0.6,3-0.6
	c1.7,0,3.1,0.5,4.2,1.5c1,0.9,1.8,2.2,2.3,3.6l4.2,12.1l4.2-12c0.5-1.5,1.4-2.8,2.4-3.7c1.1-1,2.6-1.5,4.4-1.5c1.9,0,3.6,0.7,5,1.9
	c1.4,1.3,2.1,3,2.1,5c0,0.8-0.1,1.6-0.4,2.4c-0.2,0.7-0.5,1.4-0.8,2.1l-10,22.6c-0.5,1.2-1.4,2.2-2.5,3.2
	C364.6,61.4,362.9,61.9,360.8,61.9"/>
<path class="st6" d="M397.5,61.9c-2.5,0-5-0.4-7.2-1.3c-2.2-0.9-4.3-2.2-6-3.9c-1.7-1.7-3-3.8-4-6.2c-1-2.4-1.5-5.2-1.5-8.2
	c0-2.7,0.5-5.2,1.4-7.5s2.2-4.4,3.9-6.1c1.6-1.7,3.6-3.1,5.9-4.1c2.3-1,4.8-1.5,7.5-1.5c2.6,0,5,0.5,7,1.5c2,1,3.8,2.3,5.2,3.9
	c1.4,1.6,2.5,3.5,3.2,5.6c0.7,2.1,1.1,4.3,1.1,6.7c0,1.3-0.2,2.4-0.5,3.2c-0.4,0.9-0.9,1.6-1.5,2c-0.6,0.4-1.3,0.8-2.1,0.9
	c-0.7,0.1-1.4,0.2-2,0.2h-14c0.3,0.6,0.6,1.1,1.2,1.5c0.9,0.8,1.9,1.1,3,1.1c1.6,0,2.4-0.2,2.8-0.3c0.6-0.2,1.1-0.5,1.4-0.8
	c0.5-0.4,1-0.7,1.5-1c0.7-0.4,1.6-0.5,2.9-0.5c1.7,0,3.1,0.6,4.1,1.8c0.9,1.2,1.4,2.5,1.4,3.9c0,1.6-0.5,3-1.4,4.1
	c-0.8,1.1-2,2-3.3,2.7c-1.3,0.7-2.9,1.2-4.6,1.6C401.2,61.7,399.4,61.9,397.5,61.9 M397.3,34.8c-1.2,0-2.1,0.4-2.8,1.2
	c-0.5,0.5-0.8,1.1-1,1.8l7.3-0.1c-0.1-0.7-0.4-1.3-0.8-1.8C399.4,35.2,398.6,34.8,397.3,34.8"/>
<path class="st0" d="M157.3,84.5c-0.5-0.3-1.1-0.6-1.7-0.8c-0.6-0.2-1.2-0.3-1.7-0.5c-0.5-0.1-1-0.3-1.3-0.4s-0.5-0.3-0.5-0.5
	c0-0.2,0.1-0.4,0.4-0.6c0.3-0.1,0.6-0.2,1-0.2c0.4,0,0.6,0.1,0.9,0.2c0.3,0.1,0.5,0.2,0.8,0.4s0.5,0.2,0.8,0.4s0.6,0.2,0.9,0.2
	c0.6,0,1-0.2,1.3-0.5s0.5-0.8,0.5-1.2c0-0.4-0.1-0.8-0.4-1.1c-0.3-0.3-0.7-0.6-1.2-0.9c-0.5-0.2-1.1-0.4-1.8-0.6s-1.4-0.2-2.2-0.2
	c-0.9,0-1.8,0.1-2.6,0.3c-0.8,0.2-1.4,0.6-2,1c-0.6,0.4-1,0.9-1.3,1.4c-0.3,0.6-0.4,1.2-0.4,1.8c0,0.8,0.2,1.5,0.5,2
	s0.8,0.9,1.3,1.2s1.1,0.5,1.7,0.6s1.2,0.3,1.7,0.4c0.5,0.1,1,0.3,1.3,0.4c0.4,0.1,0.5,0.4,0.5,0.7c0,0.2-0.1,0.4-0.4,0.6
	c-0.2,0.2-0.6,0.3-1.2,0.3c-0.4,0-0.7-0.1-1-0.2c-0.3-0.2-0.6-0.4-0.9-0.6c-0.3-0.2-0.6-0.4-0.9-0.6c-0.3-0.2-0.7-0.2-1.1-0.2
	c-0.5,0-0.9,0.2-1.3,0.6c-0.4,0.4-0.5,0.8-0.5,1.4c0,0.4,0.1,0.8,0.4,1.2c0.3,0.4,0.7,0.7,1.2,1c0.5,0.3,1.1,0.5,1.8,0.7
	c0.7,0.2,1.5,0.3,2.3,0.3c1.2,0,2.2-0.1,3.1-0.4s1.6-0.6,2.1-1c0.6-0.4,0.9-0.9,1.2-1.5c0.3-0.6,0.4-1.1,0.4-1.7
	c0-0.8-0.2-1.5-0.5-2C158.3,85.2,157.8,84.8,157.3,84.5"/>
<path class="st0" d="M174.1,79.5c-0.4-0.4-0.8-0.8-1.3-1c-0.6-0.2-1.2-0.3-2-0.3c-0.7,0-1.4,0.2-2.1,0.5c-0.7,0.3-1.2,0.8-1.6,1.4
	h-0.1c0-0.2,0-0.5-0.1-0.7c-0.1-0.2-0.2-0.4-0.4-0.6s-0.4-0.3-0.7-0.5c-0.3-0.1-0.7-0.2-1.1-0.2c-0.8,0-1.3,0.2-1.7,0.7
	c-0.4,0.5-0.6,1.1-0.6,1.9v8.6c0,0.4,0,0.8,0.1,1.1c0.1,0.4,0.2,0.7,0.4,1c0.2,0.3,0.4,0.5,0.7,0.7c0.3,0.2,0.7,0.3,1.2,0.3
	s0.9-0.1,1.2-0.3s0.6-0.4,0.7-0.7c0.2-0.3,0.3-0.6,0.4-1c0.1-0.4,0.1-0.8,0.1-1.2v-5.1c0-0.3,0.1-0.6,0.2-0.8
	c0.1-0.2,0.2-0.4,0.4-0.5s0.3-0.2,0.5-0.3c0.2-0.1,0.4-0.1,0.5-0.1c0.4,0,0.7,0.1,0.9,0.4s0.4,0.6,0.4,1.1v5.2c0,0.4,0,0.8,0.1,1.1
	c0.1,0.4,0.2,0.7,0.4,1c0.2,0.3,0.4,0.5,0.7,0.7c0.3,0.2,0.7,0.3,1.2,0.3s0.9-0.1,1.2-0.3c0.3-0.2,0.6-0.4,0.7-0.7
	c0.2-0.3,0.3-0.6,0.4-1c0.1-0.4,0.1-0.8,0.1-1.2v-6.5c0-0.7-0.1-1.3-0.2-1.9C174.7,80.4,174.4,79.9,174.1,79.5"/>
<path class="st0" d="M182.8,79.1c-0.2-0.3-0.4-0.5-0.7-0.7c-0.3-0.2-0.7-0.3-1.2-0.3s-0.9,0.1-1.2,0.3c-0.3,0.2-0.6,0.4-0.7,0.7
	c-0.2,0.3-0.3,0.6-0.4,1c-0.1,0.4-0.1,0.7-0.1,1.1v8.1c0,0.4,0,0.8,0.1,1.1c0.1,0.4,0.2,0.7,0.4,1c0.2,0.3,0.4,0.5,0.7,0.7
	c0.3,0.2,0.7,0.3,1.2,0.3s0.9-0.1,1.2-0.3s0.6-0.4,0.7-0.7c0.2-0.3,0.3-0.6,0.4-1c0.1-0.4,0.1-0.8,0.1-1.2v-8.1c0-0.4,0-0.8-0.1-1.2
	C183.1,79.7,183,79.4,182.8,79.1"/>
<path class="st0" d="M182.8,76.3c0.5-0.5,0.7-1.1,0.7-1.8c0-0.7-0.2-1.3-0.7-1.8c-0.5-0.5-1.1-0.7-2-0.7s-1.5,0.2-2,0.7
	c-0.5,0.5-0.7,1.1-0.7,1.8c0,0.7,0.2,1.3,0.7,1.8s1.1,0.7,2,0.7C181.7,77,182.3,76.8,182.8,76.3"/>
<path class="st0" d="M194.1,78.5h-1.4v-0.6c0-0.3,0.1-0.5,0.2-0.8c0.1-0.2,0.4-0.3,0.7-0.3c0.2,0,0.4,0,0.5,0.1s0.3,0.1,0.5,0.1
	c0.4,0,0.8-0.2,1.1-0.4c0.3-0.3,0.4-0.7,0.4-1.2c0-0.7-0.3-1.3-0.9-1.7c-0.6-0.4-1.4-0.6-2.4-0.6c-0.6,0-1.3,0.1-1.9,0.3
	c-0.6,0.2-1.2,0.5-1.7,0.9c-0.5,0.4-0.9,1-1.2,1.7c-0.3,0.7-0.4,1.5-0.4,2.5v0.1h-0.4c-0.6,0-1.1,0.2-1.4,0.4
	c-0.4,0.3-0.5,0.7-0.5,1.3c0,0.6,0.2,1,0.5,1.3c0.4,0.3,0.8,0.5,1.4,0.5h0.4v7.3c0,0.4,0,0.8,0.1,1.1c0.1,0.4,0.2,0.7,0.3,1
	c0.2,0.3,0.4,0.5,0.7,0.7c0.3,0.2,0.7,0.3,1.2,0.3c0.5,0,0.9-0.1,1.3-0.3c0.3-0.2,0.6-0.4,0.8-0.7c0.2-0.3,0.3-0.6,0.4-1
	c0.1-0.4,0.1-0.8,0.1-1.1V82h1.4c0.6,0,1.1-0.2,1.4-0.5c0.4-0.3,0.5-0.7,0.5-1.3c0-0.6-0.2-1-0.5-1.3
	C195.1,78.7,194.6,78.5,194.1,78.5"/>
<path class="st0" d="M206.7,78.5h-1.5v-0.6c0-0.3,0.1-0.5,0.2-0.8c0.2-0.2,0.4-0.3,0.7-0.3c0.2,0,0.4,0,0.5,0.1
	c0.1,0.1,0.3,0.1,0.5,0.1c0.4,0,0.8-0.2,1.1-0.4c0.3-0.3,0.5-0.7,0.5-1.2c0-0.7-0.3-1.3-0.9-1.7c-0.6-0.4-1.4-0.6-2.4-0.6
	c-0.6,0-1.3,0.1-1.9,0.3c-0.6,0.2-1.2,0.5-1.7,0.9c-0.5,0.4-0.9,1-1.2,1.7s-0.4,1.5-0.4,2.5v0.1H200c-0.6,0-1.1,0.2-1.4,0.4
	c-0.4,0.3-0.5,0.7-0.5,1.3c0,0.6,0.2,1,0.5,1.3c0.4,0.3,0.8,0.5,1.4,0.5h0.4v7.3c0,0.4,0,0.8,0.1,1.1c0,0.4,0.2,0.7,0.3,1
	c0.2,0.3,0.4,0.5,0.7,0.7c0.3,0.2,0.7,0.3,1.2,0.3c0.5,0,0.9-0.1,1.3-0.3s0.6-0.4,0.8-0.7c0.2-0.3,0.3-0.6,0.4-1
	c0.1-0.4,0.1-0.8,0.1-1.1V82h1.5c0.6,0,1.1-0.2,1.4-0.5c0.4-0.3,0.5-0.7,0.5-1.3c0-0.6-0.2-1-0.5-1.3
	C207.7,78.7,207.3,78.5,206.7,78.5"/>
<path class="st0" d="M213.5,77c0.8,0,1.5-0.2,2-0.7s0.7-1.1,0.7-1.8c0-0.7-0.2-1.3-0.7-1.8c-0.5-0.5-1.1-0.7-2-0.7s-1.5,0.2-2,0.7
	c-0.5,0.5-0.7,1.1-0.7,1.8c0,0.7,0.2,1.3,0.7,1.8C212,76.8,212.6,77,213.5,77"/>
<path class="st0" d="M213.5,78.2c-0.5,0-0.9,0.1-1.2,0.3c-0.3,0.2-0.6,0.4-0.7,0.7c-0.2,0.3-0.3,0.6-0.4,1c-0.1,0.4-0.1,0.8-0.1,1.1
	v8.1c0,0.4,0,0.8,0.1,1.1c0.1,0.4,0.2,0.7,0.4,1s0.4,0.5,0.7,0.7s0.7,0.3,1.2,0.3s0.9-0.1,1.2-0.3s0.5-0.4,0.7-0.7
	c0.2-0.3,0.3-0.6,0.4-1c0.1-0.4,0.1-0.8,0.1-1.2v-8.1c0-0.4,0-0.8-0.1-1.2c-0.1-0.4-0.2-0.7-0.4-1s-0.4-0.5-0.7-0.7
	C214.4,78.2,214,78.2,213.5,78.2"/>
<path class="st0" d="M230.9,79.5c-0.4-0.4-0.8-0.8-1.3-1s-1.2-0.3-2-0.3c-0.7,0-1.4,0.2-2,0.5c-0.7,0.3-1.2,0.8-1.6,1.4h0
	c0-0.2,0-0.5-0.1-0.7c-0.1-0.2-0.2-0.4-0.4-0.6c-0.2-0.2-0.4-0.3-0.7-0.5c-0.3-0.1-0.7-0.2-1.1-0.2c-0.8,0-1.3,0.2-1.7,0.7
	s-0.6,1.1-0.6,1.9v8.6c0,0.4,0,0.8,0.1,1.1c0.1,0.4,0.2,0.7,0.4,1s0.4,0.5,0.7,0.7s0.7,0.3,1.2,0.3s0.9-0.1,1.2-0.3s0.5-0.4,0.7-0.7
	c0.2-0.3,0.3-0.6,0.4-1c0.1-0.4,0.1-0.8,0.1-1.2v-5.1c0-0.3,0-0.6,0.2-0.8c0.1-0.2,0.2-0.4,0.4-0.5s0.3-0.2,0.5-0.3
	c0.2-0.1,0.4-0.1,0.5-0.1c0.4,0,0.7,0.1,1,0.4s0.4,0.6,0.4,1.1v5.2c0,0.4,0,0.8,0.1,1.1c0.1,0.4,0.2,0.7,0.4,1s0.4,0.5,0.7,0.7
	s0.7,0.3,1.2,0.3s0.9-0.1,1.2-0.3c0.3-0.2,0.5-0.4,0.7-0.7c0.2-0.3,0.3-0.6,0.4-1c0.1-0.4,0.1-0.8,0.1-1.2v-6.5
	c0-0.7-0.1-1.3-0.2-1.9C231.5,80.4,231.3,79.9,230.9,79.5"/>
<path class="st0" d="M246.1,78.2c-0.6,0-1.1,0.2-1.6,0.5s-0.6,0.8-0.6,1.4h-0.1c-0.1-0.2-0.2-0.4-0.4-0.7c-0.2-0.2-0.4-0.4-0.6-0.6
	c-0.3-0.2-0.6-0.3-0.9-0.4s-0.8-0.2-1.2-0.2c-0.9,0-1.7,0.2-2.4,0.5c-0.7,0.3-1.3,0.8-1.8,1.5c-0.5,0.6-0.9,1.4-1.2,2.2
	s-0.4,1.8-0.4,2.7c0,1,0.1,1.9,0.4,2.7s0.6,1.5,1.1,2c0.5,0.6,1,1,1.7,1.3c0.7,0.3,1.4,0.4,2.2,0.4c0.7,0,1.3-0.2,1.8-0.5
	c0.5-0.3,1-0.7,1.2-1.2h0.1v1.7c0,0.7-0.2,1.1-0.6,1.5c-0.4,0.3-1,0.5-1.6,0.5c-0.4,0-0.8-0.1-1-0.2c-0.2-0.1-0.4-0.2-0.6-0.4
	c-0.2-0.1-0.4-0.3-0.6-0.4s-0.5-0.2-0.9-0.2c-0.5,0-1,0.2-1.4,0.6c-0.4,0.4-0.5,0.8-0.5,1.3c0,0.4,0.1,0.8,0.3,1.2s0.5,0.7,1,1
	c0.4,0.3,1,0.5,1.6,0.7c0.7,0.2,1.4,0.2,2.3,0.2c2.2,0,4-0.6,5.1-1.7s1.7-2.7,1.7-4.7V80.8c0-0.8-0.2-1.4-0.5-1.9
	C247.4,78.4,246.9,78.2,246.1,78.2 M243.4,84.1v2c0,0.2,0,0.3,0,0.4c-0.1,0.3-0.3,0.6-0.6,0.8c-0.3,0.2-0.6,0.3-1,0.3
	c-0.7,0-1.1-0.2-1.5-0.7s-0.5-1.1-0.5-1.9c0-1.6,0.7-2.4,2-2.4c0.4,0,0.7,0.1,1,0.3c0.3,0.2,0.5,0.5,0.6,0.8c0,0.1,0,0.1,0,0.2
	L243.4,84.1L243.4,84.1z"/>
<path class="st0" d="M269.9,80.2c-0.6-0.6-1.4-1.1-2.4-1.5s-1.9-0.6-3.1-0.6c-1.1,0-2.1,0.2-3,0.6c-0.9,0.4-1.7,0.9-2.4,1.5
	s-1.2,1.4-1.5,2.3c-0.4,0.9-0.5,1.8-0.5,2.8s0.2,2,0.5,2.8c0.4,0.9,0.9,1.6,1.5,2.3c0.6,0.6,1.4,1.1,2.4,1.5c0.9,0.4,1.9,0.6,3,0.6
	c1.1,0,2.1-0.2,3.1-0.6c0.9-0.4,1.7-0.9,2.4-1.5s1.2-1.4,1.5-2.3s0.5-1.8,0.5-2.8s-0.2-2-0.5-2.8C271.1,81.6,270.6,80.8,269.9,80.2
	 M266.8,86.4c-0.1,0.4-0.3,0.7-0.5,0.9c-0.2,0.3-0.5,0.5-0.8,0.6c-0.3,0.2-0.7,0.2-1.1,0.2c-0.4,0-0.8-0.1-1.1-0.2s-0.6-0.4-0.8-0.6
	c-0.2-0.3-0.4-0.6-0.5-0.9c-0.1-0.4-0.2-0.8-0.2-1.2s0.1-0.8,0.2-1.2c0.1-0.4,0.3-0.7,0.5-0.9c0.2-0.3,0.5-0.5,0.8-0.7
	s0.7-0.2,1.1-0.2c0.4,0,0.8,0.1,1.1,0.2s0.6,0.4,0.8,0.7c0.2,0.3,0.4,0.6,0.5,0.9c0.1,0.4,0.2,0.8,0.2,1.2S267,86,266.8,86.4"/>
<path class="st0" d="M286.9,79.1c-0.2-0.3-0.4-0.5-0.7-0.7s-0.7-0.3-1.2-0.3s-0.9,0.1-1.2,0.3c-0.3,0.2-0.5,0.4-0.7,0.7
	c-0.2,0.3-0.3,0.6-0.4,1c-0.1,0.4-0.1,0.8-0.1,1.2v5.1c0,0.3,0,0.6-0.2,0.8c-0.1,0.2-0.2,0.4-0.4,0.5s-0.3,0.2-0.5,0.3
	c-0.2,0.1-0.4,0.1-0.5,0.1c-0.4,0-0.7-0.1-1-0.4s-0.4-0.6-0.4-1.1v-5.4c0-0.4,0-0.8-0.1-1.1c-0.1-0.3-0.2-0.7-0.4-0.9
	s-0.4-0.5-0.7-0.6c-0.3-0.2-0.7-0.2-1.2-0.2c-0.5,0-0.9,0.1-1.2,0.2c-0.3,0.2-0.6,0.4-0.7,0.7c-0.2,0.3-0.3,0.6-0.4,1
	s-0.1,0.7-0.1,1.1v6.6c0,0.7,0.1,1.3,0.2,1.9c0.2,0.6,0.4,1.1,0.8,1.5c0.4,0.4,0.8,0.8,1.3,1c0.5,0.2,1.2,0.4,2,0.4
	c0.7,0,1.4-0.2,2-0.5c0.7-0.4,1.2-0.8,1.6-1.4h0c0,0.2,0,0.5,0.1,0.7c0.1,0.2,0.2,0.4,0.4,0.6c0.2,0.2,0.4,0.3,0.7,0.5
	c0.3,0.1,0.7,0.2,1.1,0.2c0.8,0,1.3-0.2,1.7-0.7s0.6-1.1,0.6-1.9v-8.6c0-0.4,0-0.8-0.1-1.1C287.2,79.8,287.1,79.4,286.9,79.1"/>
<path class="st0" d="M291.3,82h0.4v6.2c0,0.8,0.1,1.5,0.4,2c0.2,0.5,0.5,1,0.9,1.3s0.9,0.6,1.4,0.7s1.1,0.2,1.8,0.2
	c0.6,0,1.1-0.1,1.6-0.2s0.9-0.3,1.3-0.5c0.4-0.2,0.6-0.5,0.9-0.8c0.2-0.3,0.3-0.6,0.3-1c0-0.5-0.2-1-0.5-1.3
	c-0.3-0.3-0.7-0.5-1.2-0.5c-0.2,0-0.4,0-0.6,0.1s-0.4,0.1-0.5,0.1c-0.3,0-0.6-0.1-0.7-0.3c-0.1-0.2-0.2-0.4-0.2-0.7V82h1.6
	c0.6,0,1.1-0.2,1.4-0.4c0.4-0.3,0.5-0.7,0.5-1.3c0-0.6-0.2-1-0.5-1.3c-0.4-0.3-0.8-0.5-1.4-0.5h-1.6v-0.6c0-0.4,0-0.8-0.1-1.1
	s-0.2-0.7-0.3-1c-0.2-0.3-0.4-0.5-0.7-0.7c-0.3-0.2-0.7-0.3-1.2-0.3c-0.5,0-0.9,0.1-1.2,0.3c-0.3,0.2-0.5,0.4-0.7,0.7
	s-0.3,0.6-0.4,1s-0.1,0.8-0.1,1.1v0.6h-0.4c-0.6,0-1.1,0.2-1.5,0.5s-0.6,0.8-0.6,1.3s0.2,1,0.5,1.3C290.3,81.8,290.7,82,291.3,82"/>
<path class="st0" d="M318.9,84.5c-0.5-0.3-1.1-0.6-1.7-0.8c-0.6-0.2-1.2-0.3-1.7-0.5c-0.5-0.1-1-0.3-1.3-0.4
	c-0.4-0.1-0.5-0.3-0.5-0.5c0-0.2,0.1-0.4,0.4-0.6c0.3-0.1,0.6-0.2,1-0.2c0.4,0,0.6,0.1,0.9,0.2s0.5,0.2,0.8,0.4s0.5,0.2,0.8,0.4
	s0.6,0.2,0.9,0.2c0.5,0,1-0.2,1.3-0.5s0.5-0.8,0.5-1.2c0-0.4-0.1-0.8-0.4-1.1c-0.3-0.3-0.7-0.6-1.2-0.9c-0.5-0.2-1.1-0.4-1.8-0.6
	s-1.4-0.2-2.2-0.2c-0.9,0-1.8,0.1-2.5,0.3c-0.8,0.2-1.4,0.6-2,1c-0.5,0.4-1,0.9-1.3,1.4c-0.3,0.6-0.4,1.2-0.4,1.8
	c0,0.8,0.2,1.5,0.5,2s0.8,0.9,1.3,1.2s1.1,0.5,1.7,0.6s1.2,0.3,1.7,0.4c0.5,0.1,1,0.3,1.3,0.4c0.4,0.1,0.5,0.4,0.5,0.7
	c0,0.2-0.1,0.4-0.4,0.6c-0.2,0.2-0.6,0.3-1.2,0.3c-0.4,0-0.7-0.1-1-0.2c-0.3-0.2-0.6-0.4-0.9-0.6c-0.3-0.2-0.6-0.4-1-0.6
	c-0.3-0.2-0.7-0.2-1.1-0.2c-0.5,0-0.9,0.2-1.3,0.6c-0.4,0.4-0.5,0.8-0.5,1.4c0,0.4,0.1,0.8,0.4,1.2c0.3,0.4,0.7,0.7,1.2,1
	c0.5,0.3,1.1,0.5,1.8,0.7c0.7,0.2,1.5,0.3,2.3,0.3c1.2,0,2.2-0.1,3.1-0.4s1.6-0.6,2.1-1c0.5-0.4,1-0.9,1.2-1.5
	c0.3-0.6,0.4-1.1,0.4-1.7c0-0.8-0.2-1.5-0.5-2C319.9,85.2,319.5,84.8,318.9,84.5"/>
<path class="st0" d="M332.8,78.6c-0.7-0.3-1.6-0.4-2.7-0.4c-0.7,0-1.3,0.1-2,0.1c-0.7,0.1-1.3,0.2-1.8,0.4c-0.5,0.2-1,0.5-1.3,0.8
	s-0.5,0.7-0.5,1.2c0,0.5,0.1,0.9,0.4,1.2s0.7,0.5,1.4,0.5c0.3,0,0.6-0.1,0.9-0.1c0.2-0.1,0.5-0.2,0.7-0.3s0.5-0.2,0.7-0.3
	s0.6-0.1,1-0.1s0.7,0.1,0.9,0.2c0.2,0.1,0.4,0.3,0.5,0.5c0.1,0.2,0.2,0.5,0.3,0.8c0,0.3,0.1,0.6,0.1,0.9c-0.3-0.2-0.7-0.4-1.2-0.6
	s-1-0.2-1.4-0.2c-0.7,0-1.3,0.1-2,0.3c-0.6,0.2-1.2,0.4-1.7,0.8s-0.9,0.8-1.2,1.4c-0.3,0.6-0.5,1.2-0.5,2.1c0,0.7,0.1,1.4,0.4,2
	c0.3,0.6,0.6,1.1,1.1,1.5c0.5,0.4,1,0.7,1.6,0.9s1.3,0.3,2,0.3c1,0,1.7-0.1,2.3-0.4c0.6-0.3,1-0.6,1.4-1c0.1,0.4,0.3,0.7,0.6,1
	c0.4,0.3,0.8,0.4,1.5,0.4c0.4,0,0.8-0.1,1.1-0.2s0.5-0.3,0.7-0.5c0.2-0.2,0.3-0.4,0.4-0.7c0.1-0.3,0.1-0.5,0.1-0.8
	c0-0.4,0-0.7-0.1-1s-0.1-0.6-0.1-1.1v-4.8c0-0.7-0.1-1.4-0.3-2.1s-0.6-1.2-1-1.7C334.2,79.2,333.5,78.8,332.8,78.6 M331.2,87.2v0.3
	v0.3c0,0.1,0,0.2-0.1,0.4s-0.1,0.2-0.3,0.3c-0.1,0.1-0.3,0.2-0.5,0.3c-0.2,0.1-0.4,0.1-0.6,0.1c-0.5,0-0.8-0.1-1.1-0.4
	s-0.4-0.6-0.4-1s0.1-0.8,0.4-1c0.3-0.2,0.7-0.4,1.1-0.4c0.6,0,1.1,0.2,1.5,0.7L331.2,87.2L331.2,87.2z"/>
<path class="st0" d="M338.4,82.3l3.9,8.6c0.2,0.4,0.5,0.8,0.9,1.1c0.4,0.3,1,0.5,1.7,0.5c0.8,0,1.3-0.2,1.7-0.5
	c0.4-0.3,0.7-0.7,0.9-1.1l4.1-8.9c0.1-0.2,0.2-0.5,0.3-0.8s0.1-0.5,0.1-0.8c0-0.7-0.2-1.2-0.7-1.6c-0.5-0.4-1.1-0.6-1.7-0.6
	c-0.6,0-1.1,0.2-1.5,0.5s-0.7,0.7-0.9,1.3l-2.2,5.9l-2.1-5.9c-0.2-0.5-0.5-0.9-0.8-1.2c-0.4-0.3-0.8-0.5-1.4-0.5
	c-0.4,0-0.7,0.1-1,0.2c-0.3,0.1-0.6,0.3-0.9,0.6c-0.3,0.2-0.5,0.5-0.6,0.8c-0.1,0.3-0.2,0.6-0.2,0.9"/>
<path class="st0" d="M354.8,91.5c0.2,0.3,0.4,0.5,0.7,0.7s0.7,0.3,1.2,0.3s0.9-0.1,1.2-0.3s0.5-0.4,0.7-0.7c0.2-0.3,0.3-0.6,0.4-1
	c0.1-0.4,0.1-0.8,0.1-1.2v-8.1c0-0.4,0-0.8-0.1-1.2c-0.1-0.4-0.2-0.7-0.4-1s-0.4-0.5-0.7-0.7c-0.3-0.2-0.7-0.3-1.2-0.3
	s-0.9,0.1-1.2,0.3c-0.3,0.2-0.6,0.4-0.7,0.7c-0.2,0.3-0.3,0.6-0.4,1c-0.1,0.4-0.1,0.7-0.1,1.1v8.1c0,0.4,0,0.8,0.1,1.1
	C354.5,90.8,354.6,91.2,354.8,91.5"/>
<path class="st0" d="M358.7,76.3c0.5-0.5,0.7-1.1,0.7-1.8c0-0.7-0.2-1.3-0.7-1.8c-0.5-0.5-1.1-0.7-2-0.7s-1.5,0.2-2,0.7
	c-0.5,0.5-0.7,1.1-0.7,1.8c0,0.7,0.2,1.3,0.7,1.8c0.5,0.5,1.1,0.7,2,0.7C357.6,77,358.2,76.8,358.7,76.3"/>
<path class="st0" d="M374.2,79.5c-0.4-0.4-0.8-0.8-1.3-1c-0.5-0.2-1.2-0.3-2-0.3c-0.7,0-1.4,0.2-2,0.5c-0.7,0.3-1.2,0.8-1.6,1.4h0
	c0-0.2,0-0.5-0.1-0.7c-0.1-0.2-0.2-0.4-0.4-0.6c-0.2-0.2-0.4-0.3-0.7-0.5c-0.3-0.1-0.7-0.2-1.1-0.2c-0.8,0-1.3,0.2-1.7,0.7
	s-0.6,1.1-0.6,1.9v8.6c0,0.4,0,0.8,0.1,1.1c0.1,0.4,0.2,0.7,0.4,1s0.4,0.5,0.7,0.7s0.7,0.3,1.2,0.3s0.9-0.1,1.2-0.3
	c0.3-0.2,0.5-0.4,0.7-0.7c0.2-0.3,0.3-0.6,0.4-1c0.1-0.4,0.1-0.8,0.1-1.2v-5.1c0-0.3,0-0.6,0.2-0.8c0.1-0.2,0.2-0.4,0.4-0.5
	s0.3-0.2,0.5-0.3c0.2-0.1,0.4-0.1,0.5-0.1c0.4,0,0.7,0.1,1,0.4s0.4,0.6,0.4,1.1v5.2c0,0.4,0,0.8,0.1,1.1c0.1,0.4,0.2,0.7,0.4,1
	s0.4,0.5,0.7,0.7s0.7,0.3,1.2,0.3s0.9-0.1,1.2-0.3s0.5-0.4,0.7-0.7c0.2-0.3,0.3-0.6,0.4-1c0.1-0.4,0.1-0.8,0.1-1.2v-6.5
	c0-0.7-0.1-1.3-0.2-1.9C374.8,80.4,374.5,79.9,374.2,79.5"/>
<path class="st0" d="M389.4,78.2c-0.6,0-1.1,0.2-1.6,0.5s-0.6,0.8-0.6,1.4h-0.1c-0.1-0.2-0.2-0.4-0.4-0.7c-0.2-0.2-0.4-0.4-0.6-0.6
	c-0.3-0.2-0.6-0.3-0.9-0.4s-0.8-0.2-1.2-0.2c-0.9,0-1.7,0.2-2.4,0.5c-0.7,0.3-1.3,0.8-1.8,1.5c-0.5,0.6-0.9,1.4-1.2,2.2
	s-0.4,1.8-0.4,2.7c0,1,0.1,1.9,0.4,2.7s0.6,1.5,1.1,2c0.5,0.6,1,1,1.7,1.3c0.7,0.3,1.4,0.4,2.2,0.4c0.7,0,1.3-0.2,1.8-0.5
	c0.5-0.3,1-0.7,1.2-1.2h0.1v1.7c0,0.7-0.2,1.1-0.6,1.5c-0.4,0.3-1,0.5-1.6,0.5c-0.4,0-0.8-0.1-1-0.2c-0.2-0.1-0.4-0.2-0.6-0.4
	s-0.4-0.3-0.6-0.4s-0.5-0.2-0.9-0.2c-0.5,0-1,0.2-1.4,0.6c-0.4,0.4-0.5,0.8-0.5,1.3c0,0.4,0.1,0.8,0.3,1.2s0.5,0.7,1,1
	c0.4,0.3,1,0.5,1.6,0.7c0.7,0.2,1.4,0.2,2.3,0.2c2.2,0,4-0.6,5.1-1.7s1.7-2.7,1.7-4.7V80.8c0-0.8-0.2-1.4-0.5-1.9
	C390.7,78.4,390.1,78.2,389.4,78.2 M386.7,84.1v2c0,0.2,0,0.3,0,0.4c-0.1,0.3-0.3,0.6-0.6,0.8c-0.3,0.2-0.6,0.3-1,0.3
	c-0.7,0-1.1-0.2-1.5-0.7s-0.5-1.1-0.5-1.9c0-1.6,0.7-2.4,2-2.4c0.4,0,0.7,0.1,1,0.3c0.3,0.2,0.5,0.5,0.6,0.8c0,0.1,0,0.1,0,0.2
	L386.7,84.1L386.7,84.1z"/>
<path class="st0" d="M405.2,84.5c-0.5-0.3-1.1-0.6-1.7-0.8c-0.6-0.2-1.2-0.3-1.7-0.5c-0.5-0.1-1-0.3-1.3-0.4
	c-0.4-0.1-0.5-0.3-0.5-0.5c0-0.2,0.1-0.4,0.4-0.6c0.3-0.1,0.6-0.2,1-0.2c0.4,0,0.6,0.1,0.9,0.2s0.5,0.2,0.8,0.4s0.5,0.2,0.8,0.4
	s0.6,0.2,0.9,0.2c0.5,0,1-0.2,1.3-0.5s0.5-0.8,0.5-1.2c0-0.4-0.1-0.8-0.4-1.1c-0.3-0.3-0.7-0.6-1.2-0.9c-0.5-0.2-1.1-0.4-1.8-0.6
	c-0.7-0.1-1.4-0.2-2.2-0.2c-0.9,0-1.8,0.1-2.5,0.3c-0.8,0.2-1.4,0.6-2,1c-0.5,0.4-1,0.9-1.3,1.4c-0.3,0.6-0.4,1.2-0.4,1.8
	c0,0.8,0.2,1.5,0.5,2s0.8,0.9,1.3,1.2c0.5,0.3,1.1,0.5,1.7,0.6c0.6,0.1,1.2,0.3,1.7,0.4c0.5,0.1,1,0.3,1.3,0.4
	c0.4,0.1,0.5,0.4,0.5,0.7c0,0.2-0.1,0.4-0.4,0.6c-0.2,0.2-0.6,0.3-1.2,0.3c-0.4,0-0.7-0.1-1-0.2c-0.3-0.2-0.6-0.4-0.9-0.6
	c-0.3-0.2-0.6-0.4-1-0.6c-0.3-0.2-0.7-0.2-1.1-0.2c-0.5,0-0.9,0.2-1.3,0.6c-0.4,0.4-0.5,0.8-0.5,1.4c0,0.4,0.1,0.8,0.4,1.2
	c0.3,0.4,0.7,0.7,1.2,1c0.5,0.3,1.1,0.5,1.8,0.7c0.7,0.2,1.6,0.3,2.4,0.3c1.2,0,2.1-0.1,3-0.4c0.9-0.3,1.6-0.6,2.1-1
	c0.5-0.4,1-0.9,1.2-1.5c0.3-0.6,0.4-1.1,0.4-1.7c0-0.8-0.2-1.5-0.5-2C406.2,85.2,405.8,84.8,405.2,84.5"/>
<path class="st0" d="M134.6,76.4c0,0.3-0.6,0.5-1.4,0.5s-1.4-0.2-1.4-0.5s0.6-0.5,1.4-0.5C134,75.9,134.6,76.1,134.6,76.4"/>
<path class="st0" d="M117.3,70.1c0,0.8-0.4,1.5-0.9,1.5s-0.9-0.7-0.9-1.5s0.4-1.5,0.9-1.5S117.3,69.3,117.3,70.1"/>
<g>
	<path class="st7" d="M417.1,27.2c-2.5,0-4.6-2.1-4.6-4.6s2.1-4.6,4.6-4.6s4.6,2.1,4.6,4.6S419.7,27.2,417.1,27.2z M417.1,18.9
		c-2,0-3.7,1.6-3.7,3.7s1.6,3.7,3.7,3.7s3.7-1.6,3.7-3.7C420.8,20.6,419.1,18.9,417.1,18.9z"/>
</g>
<g>
	<g>
		<path class="st8" d="M415.5,20.1c0.4-0.1,0.9-0.1,1.5-0.1c0.7,0,1.2,0.1,1.6,0.4c0.3,0.2,0.5,0.6,0.5,1c0,0.6-0.4,1.1-0.9,1.2v0
			c0.3,0.1,0.5,0.5,0.7,0.9c0.1,0.6,0.3,1.2,0.4,1.4h-1.1c-0.1-0.2-0.2-0.5-0.3-1.2c-0.1-0.6-0.4-0.8-0.8-0.8h-0.3v1.9h-1.1
			L415.5,20.1L415.5,20.1z M416.6,22.2h0.4c0.5,0,0.9-0.3,0.9-0.7c0-0.4-0.3-0.7-0.8-0.7c-0.3,0-0.4,0-0.5,0V22.2z"/>
	</g>
</g>
</svg>
